<svg id="Layer_1" data-name="Layer 1" xmlns="http://www.w3.org/2000/svg" viewBox="0 0 599.76 600"><defs><style>.cls-1{fill:#5fc6ca;}.cls-2{fill:#fff;}</style></defs><rect class="cls-1" width="599.76" height="599.76"/><path class="cls-2" d="M119.34,381.43a11.17,11.17,0,0,1-2.86-.37L65.26,367.33a11.16,11.16,0,0,1-7.88-7.88L43.66,308.24a11.16,11.16,0,0,1,2.88-10.76L84,260a11.16,11.16,0,0,1,10.76-2.88l4,1.08a2.61,2.61,0,1,1-1.35,5l-4-1.08a6,6,0,0,0-5.71,1.53L50.24,301.18a5.92,5.92,0,0,0-1.53,5.71L62.43,358.1a5.92,5.92,0,0,0,4.18,4.18L117.82,376a5.9,5.9,0,0,0,5.71-1.53l41-41a2.61,2.61,0,0,1,3.7,3.7l-41,41A11.21,11.21,0,0,1,119.34,381.43Z"/><path class="cls-2" d="M121.92,262.65a2.57,2.57,0,0,1-.05-3.66h0a2.63,2.63,0,0,1,3.71-.05h0a2.64,2.64,0,0,1,0,3.71h0a2.46,2.46,0,0,1-1.83.79h0A2.45,2.45,0,0,1,121.92,262.65Zm14.58-14.89a2.68,2.68,0,0,1,0-3.71h0a2.63,2.63,0,0,1,3.71-.05h0a2.63,2.63,0,0,1,0,3.71h0a2.65,2.65,0,0,1-1.88.78h0A2.81,2.81,0,0,1,136.51,247.75Z"/><path class="cls-2" d="M72.43,315.77a2.61,2.61,0,0,1-1.87-4.44l18.29-18.67a2.61,2.61,0,0,1,3.73,3.66L74.3,315A2.59,2.59,0,0,1,72.43,315.77ZM101.7,285.9a2.61,2.61,0,0,1-1.87-4.44l10.74-11a2.61,2.61,0,0,1,3.73,3.66l-10.74,11A2.61,2.61,0,0,1,101.7,285.9Z"/><path class="cls-2" d="M162.43,264.74a2.62,2.62,0,0,1-1.83-.73,2.59,2.59,0,0,1,0-3.71l18.45-18.5a2.68,2.68,0,0,1,3.71,0,2.79,2.79,0,0,1,.78,1.88,2.67,2.67,0,0,1-.78,1.83L164.26,264A2.62,2.62,0,0,1,162.43,264.74Z"/><path class="cls-2" d="M190.66,234.11a2.53,2.53,0,0,1,0-3.66h0a2.53,2.53,0,0,1,3.66,0h0a2.53,2.53,0,0,1,0,3.66h0a2.46,2.46,0,0,1-1.83.79h0A2.46,2.46,0,0,1,190.66,234.11ZM201.74,223a2.59,2.59,0,0,1,0-3.71h0a2.68,2.68,0,0,1,3.71,0h0a2.69,2.69,0,0,1,0,3.71h0a2.66,2.66,0,0,1-1.88.78h0A2.46,2.46,0,0,1,201.74,223Z"/><path class="cls-2" d="M80.66,346.53a2.61,2.61,0,0,1-1.85-4.46l7.39-7.39a2.61,2.61,0,1,1,3.7,3.7l-7.39,7.39A2.61,2.61,0,0,1,80.66,346.53ZM99.14,328a2.61,2.61,0,0,1-1.85-4.46l18.48-18.48a2.61,2.61,0,1,1,3.7,3.7L101,327.28A2.61,2.61,0,0,1,99.14,328Zm33.26-33.27a2.61,2.61,0,0,1-1.85-4.46L149,271.84a2.61,2.61,0,0,1,3.7,3.7L134.25,294A2.61,2.61,0,0,1,132.4,294.78Z"/><path class="cls-2" d="M156.58,307.44a2.68,2.68,0,0,1,0-3.71h0a2.69,2.69,0,0,1,3.71,0h0a2.68,2.68,0,0,1,0,3.71h0a2.61,2.61,0,0,1-1.83.79h0A2.64,2.64,0,0,1,156.58,307.44Z"/><path class="cls-2" d="M210.48,300.92h4.66v13.92H232V300.92h4.7v33.31H232V319H215.14v15.24h-4.66V300.92Z"/><path class="cls-2" d="M267.78,334.22h-5.18l14.44-33.31h4.23l14.3,33.31h-5.27L286.93,326H271.12Zm5-12.28h12.47L279,306.33Z"/><path class="cls-2" d="M348.27,329a15,15,0,0,1-5.13,4.35,16,16,0,0,1-7.57,1.67,18.7,18.7,0,0,1-7-1.3,16.37,16.37,0,0,1-5.55-3.62,16.72,16.72,0,0,1-3.64-5.55,19.65,19.65,0,0,1,0-14.21,16.06,16.06,0,0,1,3.72-5.5,16.91,16.91,0,0,1,5.62-3.55,19.18,19.18,0,0,1,7.05-1.27,18.89,18.89,0,0,1,3.44.33,17.51,17.51,0,0,1,3.34,1,13.84,13.84,0,0,1,2.91,1.62,10.55,10.55,0,0,1,2.26,2.24L344,308.07a9.16,9.16,0,0,0-3.46-2.8,10.76,10.76,0,0,0-4.82-1.1,12.56,12.56,0,0,0-5.24,1.06,11.83,11.83,0,0,0-4,2.89,13.1,13.1,0,0,0-2.54,4.26,14.78,14.78,0,0,0-.89,5.15,15.6,15.6,0,0,0,.87,5.27,12.59,12.59,0,0,0,2.49,4.26,11.47,11.47,0,0,0,4,2.85,12.69,12.69,0,0,0,5.2,1,11.46,11.46,0,0,0,5.13-1.13,9.83,9.83,0,0,0,3.81-3.29Z"/><path class="cls-2" d="M378.38,315.59h0.1l14.86-14.68h6.44L383.6,316.16l17.17,18.06h-6.68L378.48,317h-0.1v17.22h-4.66V300.92h4.66v14.68Z"/><path class="cls-2" d="M438.13,335.07a13.87,13.87,0,0,1-5.74-1.11,11.66,11.66,0,0,1-4-2.94,12,12,0,0,1-2.37-4.21,15.77,15.77,0,0,1-.78-4.92v-21h4.66v20.7a13.71,13.71,0,0,0,.42,3.36,8.62,8.62,0,0,0,1.39,3,7.06,7.06,0,0,0,2.54,2.12,10,10,0,0,0,7.83,0,7,7,0,0,0,2.56-2.12,8.53,8.53,0,0,0,1.39-3,13.48,13.48,0,0,0,.43-3.36v-20.7h4.66v21a15.77,15.77,0,0,1-.78,4.92,12,12,0,0,1-2.38,4.21,11.55,11.55,0,0,1-4,2.94A13.86,13.86,0,0,1,438.13,335.07Z"/><path class="cls-2" d="M492.22,334.22h-4.66V305H476.88v-4.09h26V305H492.22v29.21Z"/><path class="cls-2" d="M527.08,300.92h11.43a22.57,22.57,0,0,1,6.4.94,17.23,17.23,0,0,1,5.78,3,15.14,15.14,0,0,1,4.19,5.18,16.54,16.54,0,0,1,1.6,7.57,16.1,16.1,0,0,1-1.6,7.41,15.54,15.54,0,0,1-4.19,5.18,18,18,0,0,1-5.78,3.06,21.15,21.15,0,0,1-6.4,1H527.08V300.92Zm4.66,29.21h5.83a17.62,17.62,0,0,0,5.57-.85,12.91,12.91,0,0,0,4.42-2.45,10.94,10.94,0,0,0,2.89-4,13.1,13.1,0,0,0,1-5.32,13.48,13.48,0,0,0-1-5.46,10.71,10.71,0,0,0-2.89-3.93,12.74,12.74,0,0,0-4.42-2.4,18.07,18.07,0,0,0-5.57-.83h-5.83v25.17Z"/><path class="cls-2" d="M111.48,355.17a2.61,2.61,0,0,1-1.85-4.46l7.39-7.39a2.61,2.61,0,0,1,3.7,3.7l-7.39,7.39A2.61,2.61,0,0,1,111.48,355.17ZM130,336.69a2.61,2.61,0,0,1-1.85-4.46l18.48-18.48a2.61,2.61,0,1,1,3.7,3.7l-18.48,18.48A2.61,2.61,0,0,1,130,336.69Z"/></svg>