<svg id="Layer_1" data-name="Layer 1" xmlns="http://www.w3.org/2000/svg" viewBox="0 0 600 600"><defs><style>.cls-1{fill:#293247;}</style></defs><path class="cls-1" d="M269.13,453a19.52,19.52,0,0,1-5-.65l-89.46-24a19.5,19.5,0,0,1-13.76-13.77l-24-89.44a19.5,19.5,0,0,1,5-18.79l65.48-65.48a19.49,19.49,0,0,1,18.79-5l7,1.89a4.56,4.56,0,1,1-2.36,8.82l-7-1.89a10.39,10.39,0,0,0-10,2.67l-65.48,65.48a10.35,10.35,0,0,0-2.67,10l24,89.45a10.34,10.34,0,0,0,7.3,7.3l89.46,24a10.31,10.31,0,0,0,10-2.67L348,369.3a4.56,4.56,0,0,1,6.45,6.45l-71.56,71.57A19.57,19.57,0,0,1,269.13,453Z"/><path class="cls-1" d="M273.65,245.53a4.48,4.48,0,0,1-.09-6.39h0a4.6,4.6,0,0,1,6.48-.09h0a4.6,4.6,0,0,1,0,6.48h0a4.29,4.29,0,0,1-3.2,1.37h0A4.28,4.28,0,0,1,273.65,245.53Zm25.47-26a4.69,4.69,0,0,1,0-6.48h0a4.6,4.6,0,0,1,6.48-.09h0a4.6,4.6,0,0,1,0,6.48h0a4.63,4.63,0,0,1-3.29,1.37h0A4.91,4.91,0,0,1,299.12,219.52Z"/><path class="cls-1" d="M187.2,338.31a4.56,4.56,0,0,1-3.26-7.76l32-32.6a4.56,4.56,0,1,1,6.52,6.39l-32,32.6A4.53,4.53,0,0,1,187.2,338.31Zm51.12-52.16a4.56,4.56,0,0,1-3.26-7.76l18.76-19.14a4.56,4.56,0,0,1,6.52,6.39l-18.76,19.14A4.56,4.56,0,0,1,238.33,286.15Z"/><path class="cls-1" d="M344.41,249.19a4.58,4.58,0,0,1-3.2-1.28,4.52,4.52,0,0,1,0-6.48l32.23-32.32a4.69,4.69,0,0,1,6.48,0,4.87,4.87,0,0,1,1.37,3.29,4.66,4.66,0,0,1-1.37,3.2L347.6,247.91A4.58,4.58,0,0,1,344.41,249.19Z"/><path class="cls-1" d="M393.71,195.69a4.41,4.41,0,0,1,0-6.39h0a4.41,4.41,0,0,1,6.39,0h0a4.41,4.41,0,0,1,0,6.39h0a4.29,4.29,0,0,1-3.2,1.37h0A4.29,4.29,0,0,1,393.71,195.69Zm19.36-19.35a4.52,4.52,0,0,1,0-6.49h0a4.69,4.69,0,0,1,6.48,0h0a4.69,4.69,0,0,1,0,6.49h0a4.65,4.65,0,0,1-3.29,1.37h0A4.3,4.3,0,0,1,413.06,176.33Z"/><path class="cls-1" d="M201.57,392a4.56,4.56,0,0,1-3.23-7.79l12.91-12.91a4.56,4.56,0,0,1,6.45,6.45L204.8,390.7A4.55,4.55,0,0,1,201.57,392Zm32.28-32.27a4.56,4.56,0,0,1-3.23-7.79l32.28-32.28a4.56,4.56,0,0,1,6.45,6.45l-32.28,32.28A4.55,4.55,0,0,1,233.85,359.77Zm58.1-58.1a4.56,4.56,0,0,1-3.23-7.79L321,261.59a4.56,4.56,0,0,1,6.45,6.45l-32.28,32.28A4.55,4.55,0,0,1,292,301.66Z"/><path class="cls-1" d="M334.18,323.77a4.69,4.69,0,0,1,0-6.48h0a4.7,4.7,0,0,1,6.48,0h0a4.69,4.69,0,0,1,0,6.48h0a4.56,4.56,0,0,1-3.19,1.37h0A4.62,4.62,0,0,1,334.18,323.77Z"/><path class="cls-1" d="M255.41,407.14a4.56,4.56,0,0,1-3.23-7.79l12.91-12.91a4.56,4.56,0,0,1,6.45,6.45l-12.91,12.91A4.55,4.55,0,0,1,255.41,407.14Zm32.28-32.27a4.56,4.56,0,0,1-3.23-7.79l32.28-32.28a4.56,4.56,0,0,1,6.45,6.45l-32.28,32.28A4.55,4.55,0,0,1,287.69,374.87Z"/></svg>