<svg id="Layer_1" data-name="Layer 1" xmlns="http://www.w3.org/2000/svg" viewBox="0 0 599.76 600"><defs><style>.cls-1{fill:#5fc6ca;}.cls-2{fill:#293247;}</style></defs><rect class="cls-1" y="0.12" width="599.76" height="599.76"/><path class="cls-2" d="M164.77,455.28h3.43v10.24h12.39V455.28H184v24.5h-3.46V468.57H168.19v11.21h-3.43v-24.5Z"/><path class="cls-2" d="M206.92,479.78h-3.81l10.63-24.5h3.11l10.52,24.5H223.5l-2.49-6H209.38Zm3.67-9h9.17l-4.57-11.49Z"/><path class="cls-2" d="M266.13,476a11,11,0,0,1-3.77,3.2,11.76,11.76,0,0,1-5.57,1.23,13.76,13.76,0,0,1-5.17-1,12,12,0,0,1-4.08-2.66,12.3,12.3,0,0,1-2.68-4.09,14.46,14.46,0,0,1,0-10.45,11.82,11.82,0,0,1,2.73-4,12.44,12.44,0,0,1,4.14-2.61,14.11,14.11,0,0,1,5.19-.94,13.9,13.9,0,0,1,2.53.24,12.88,12.88,0,0,1,2.46.73,10.18,10.18,0,0,1,2.14,1.19,7.76,7.76,0,0,1,1.66,1.64l-2.7,2.08a6.74,6.74,0,0,0-2.54-2.06,7.91,7.91,0,0,0-3.55-.81,9.24,9.24,0,0,0-3.86.78,8.7,8.7,0,0,0-2.92,2.13,9.64,9.64,0,0,0-1.87,3.13,10.88,10.88,0,0,0-.66,3.79,11.48,11.48,0,0,0,.64,3.88,9.26,9.26,0,0,0,1.83,3.13,8.44,8.44,0,0,0,2.91,2.1,9.34,9.34,0,0,0,3.82.76,8.43,8.43,0,0,0,3.77-.83,7.24,7.24,0,0,0,2.8-2.42Z"/><path class="cls-2" d="M288.28,466.07h0.07l10.94-10.8H304l-11.9,11.21,12.63,13.29h-4.92l-11.49-12.67h-0.07v12.67h-3.43v-24.5h3.43v10.8Z"/><path class="cls-2" d="M332.24,480.4a10.2,10.2,0,0,1-4.22-.81,8.58,8.58,0,0,1-3-2.16,8.85,8.85,0,0,1-1.75-3.1,11.6,11.6,0,0,1-.57-3.62V455.28h3.43V470.5a10.08,10.08,0,0,0,.31,2.47,6.34,6.34,0,0,0,1,2.2,5.19,5.19,0,0,0,1.87,1.56,7.37,7.37,0,0,0,5.76,0,5.15,5.15,0,0,0,1.89-1.56,6.28,6.28,0,0,0,1-2.2,9.92,9.92,0,0,0,.32-2.47V455.28h3.42v15.43a11.6,11.6,0,0,1-.57,3.62,8.86,8.86,0,0,1-1.75,3.1,8.49,8.49,0,0,1-3,2.16A10.2,10.2,0,0,1,332.24,480.4Z"/><path class="cls-2" d="M372,479.78h-3.42V458.29h-7.86v-3h19.14v3H372v21.49Z"/><path class="cls-2" d="M397.67,455.28h8.41a16.61,16.61,0,0,1,4.71.69,12.68,12.68,0,0,1,4.25,2.18,11.14,11.14,0,0,1,3.08,3.81,12.17,12.17,0,0,1,1.18,5.57,11.84,11.84,0,0,1-1.18,5.45,11.43,11.43,0,0,1-3.08,3.81,13.27,13.27,0,0,1-4.25,2.25,15.56,15.56,0,0,1-4.71.74h-8.41v-24.5Zm3.43,21.49h4.29a13,13,0,0,0,4.1-.62,9.5,9.5,0,0,0,3.25-1.8,8,8,0,0,0,2.13-2.91,9.64,9.64,0,0,0,.76-3.91,9.92,9.92,0,0,0-.76-4,7.88,7.88,0,0,0-2.13-2.89,9.37,9.37,0,0,0-3.25-1.76,13.3,13.3,0,0,0-4.1-.61H401.1v18.52Z"/><path class="cls-2" d="M290.47,403.12a19.45,19.45,0,0,1-5-.65l-89.16-23.9a19.43,19.43,0,0,1-13.71-13.72L158.73,275.7a19.43,19.43,0,0,1,5-18.73L229,191.71a19.43,19.43,0,0,1,18.73-5l7,1.88a4.55,4.55,0,1,1-2.35,8.79l-7-1.88a10.36,10.36,0,0,0-9.94,2.67l-65.27,65.27a10.31,10.31,0,0,0-2.67,9.93l23.89,89.16a10.3,10.3,0,0,0,7.27,7.28l89.16,23.9a10.27,10.27,0,0,0,9.95-2.66l71.32-71.33a4.55,4.55,0,1,1,6.43,6.43l-71.33,71.33A19.51,19.51,0,0,1,290.47,403.12Z"/><path class="cls-2" d="M295,196.33a4.47,4.47,0,0,1-.09-6.37h0a4.58,4.58,0,0,1,6.46-.09h0a4.59,4.59,0,0,1,0,6.46h0a4.28,4.28,0,0,1-3.19,1.37h0A4.27,4.27,0,0,1,295,196.33Zm25.39-25.93a4.67,4.67,0,0,1,0-6.46h0a4.58,4.58,0,0,1,6.46-.09h0a4.58,4.58,0,0,1,0,6.46h0a4.61,4.61,0,0,1-3.27,1.36h0A4.89,4.89,0,0,1,320.37,170.4Z"/><path class="cls-2" d="M208.82,288.8a4.55,4.55,0,0,1-3.25-7.73l31.85-32.5a4.55,4.55,0,0,1,6.5,6.37l-31.85,32.49A4.51,4.51,0,0,1,208.82,288.8Zm51-52a4.55,4.55,0,0,1-3.25-7.74L275.23,210a4.55,4.55,0,0,1,6.5,6.37L263,235.45A4.54,4.54,0,0,1,259.77,236.81Z"/><path class="cls-2" d="M365.5,200a4.56,4.56,0,0,1-3.19-1.28,4.51,4.51,0,0,1,0-6.46L394.44,160a4.67,4.67,0,0,1,6.46,0,4.86,4.86,0,0,1,1.36,3.27,4.64,4.64,0,0,1-1.36,3.19L368.69,198.7A4.56,4.56,0,0,1,365.5,200Z"/><path class="cls-2" d="M414.64,146.65a4.4,4.4,0,0,1,0-6.37h0a4.4,4.4,0,0,1,6.37,0h0a4.4,4.4,0,0,1,0,6.37h0a4.28,4.28,0,0,1-3.19,1.37h0A4.28,4.28,0,0,1,414.64,146.65Zm19.29-19.29a4.51,4.51,0,0,1,0-6.46h0a4.67,4.67,0,0,1,6.46,0h0a4.68,4.68,0,0,1,0,6.46h0a4.63,4.63,0,0,1-3.27,1.36h0A4.28,4.28,0,0,1,433.93,127.36Z"/><path class="cls-2" d="M223.14,342.35a4.55,4.55,0,0,1-3.22-7.77l12.87-12.87a4.55,4.55,0,0,1,6.43,6.43L226.36,341A4.54,4.54,0,0,1,223.14,342.35Zm32.17-32.17a4.55,4.55,0,0,1-3.22-7.77l32.17-32.18a4.55,4.55,0,0,1,6.43,6.43l-32.17,32.18A4.54,4.54,0,0,1,255.31,310.18Zm57.91-57.91a4.55,4.55,0,0,1-3.22-7.77l32.17-32.17a4.55,4.55,0,0,1,6.43,6.43l-32.17,32.17A4.54,4.54,0,0,1,313.22,252.27Z"/><path class="cls-2" d="M355.31,274.31a4.67,4.67,0,0,1,0-6.46h0a4.68,4.68,0,0,1,6.46,0h0a4.67,4.67,0,0,1,0,6.46h0a4.54,4.54,0,0,1-3.18,1.37h0A4.6,4.6,0,0,1,355.31,274.31Z"/><path class="cls-2" d="M276.8,357.41a4.55,4.55,0,0,1-3.22-7.77l12.87-12.87a4.55,4.55,0,1,1,6.43,6.43L280,356.07A4.54,4.54,0,0,1,276.8,357.41ZM309,325.24a4.55,4.55,0,0,1-3.22-7.77l32.17-32.18a4.55,4.55,0,0,1,6.43,6.43L312.19,323.9A4.54,4.54,0,0,1,309,325.24Z"/></svg>