<svg id="Layer_1" data-name="Layer 1" xmlns="http://www.w3.org/2000/svg" viewBox="0 0 600 600"><defs><style>.cls-1{fill:#8da1cd;}</style></defs><path class="cls-1" d="M164.89,454.33h3.43v10.24H180.7V454.33h3.46v24.5H180.7V467.62H168.31v11.21h-3.43v-24.5Z"/><path class="cls-1" d="M207,478.83h-3.81l10.63-24.5H217l10.52,24.5h-3.88l-2.49-6H209.5Zm3.67-9h9.17l-4.57-11.49Z"/><path class="cls-1" d="M266.25,475a11,11,0,0,1-3.77,3.2,11.76,11.76,0,0,1-5.57,1.23,13.76,13.76,0,0,1-5.17-1,12,12,0,0,1-4.08-2.66,12.3,12.3,0,0,1-2.68-4.09,14.46,14.46,0,0,1,0-10.45,11.82,11.82,0,0,1,2.73-4,12.44,12.44,0,0,1,4.14-2.61,14.11,14.11,0,0,1,5.19-.94,13.9,13.9,0,0,1,2.53.24,12.88,12.88,0,0,1,2.46.73,10.18,10.18,0,0,1,2.14,1.19,7.76,7.76,0,0,1,1.66,1.64l-2.7,2.08a6.74,6.74,0,0,0-2.54-2.06,7.91,7.91,0,0,0-3.55-.81,9.24,9.24,0,0,0-3.86.78,8.7,8.7,0,0,0-2.92,2.13,9.64,9.64,0,0,0-1.87,3.13,10.88,10.88,0,0,0-.66,3.79,11.48,11.48,0,0,0,.64,3.88,9.26,9.26,0,0,0,1.83,3.13,8.44,8.44,0,0,0,2.91,2.1,9.34,9.34,0,0,0,3.82.76,8.43,8.43,0,0,0,3.77-.83,7.24,7.24,0,0,0,2.8-2.42Z"/><path class="cls-1" d="M288.4,465.12h0.07l10.94-10.8h4.74l-11.9,11.21,12.63,13.29H300l-11.49-12.67H288.4v12.67H285v-24.5h3.43v10.8Z"/><path class="cls-1" d="M332.36,479.45a10.2,10.2,0,0,1-4.22-.81,8.58,8.58,0,0,1-3-2.16,8.85,8.85,0,0,1-1.75-3.1,11.6,11.6,0,0,1-.57-3.62V454.33h3.43v15.23a10.08,10.08,0,0,0,.31,2.47,6.34,6.34,0,0,0,1,2.2,5.19,5.19,0,0,0,1.87,1.56,7.37,7.37,0,0,0,5.76,0,5.15,5.15,0,0,0,1.89-1.56,6.28,6.28,0,0,0,1-2.2,9.92,9.92,0,0,0,.32-2.47V454.33h3.42v15.43a11.6,11.6,0,0,1-.57,3.62,8.86,8.86,0,0,1-1.75,3.1,8.49,8.49,0,0,1-3,2.16A10.2,10.2,0,0,1,332.36,479.45Z"/><path class="cls-1" d="M372.15,478.83h-3.42V457.34h-7.86v-3H380v3h-7.86v21.49Z"/><path class="cls-1" d="M397.79,454.33h8.41a16.61,16.61,0,0,1,4.71.69,12.68,12.68,0,0,1,4.25,2.18,11.14,11.14,0,0,1,3.08,3.81,12.17,12.17,0,0,1,1.18,5.57,11.84,11.84,0,0,1-1.18,5.45,11.43,11.43,0,0,1-3.08,3.81,13.27,13.27,0,0,1-4.25,2.25,15.56,15.56,0,0,1-4.71.74h-8.41v-24.5Zm3.43,21.49h4.29a13,13,0,0,0,4.1-.62,9.5,9.5,0,0,0,3.25-1.8,8,8,0,0,0,2.13-2.91,9.64,9.64,0,0,0,.76-3.91,9.92,9.92,0,0,0-.76-4,7.88,7.88,0,0,0-2.13-2.89,9.37,9.37,0,0,0-3.25-1.76,13.3,13.3,0,0,0-4.1-.61h-4.29v18.52Z"/><path class="cls-1" d="M290.59,402.16a19.45,19.45,0,0,1-5-.65l-89.16-23.9a19.43,19.43,0,0,1-13.71-13.72l-23.89-89.15a19.43,19.43,0,0,1,5-18.73l65.27-65.27a19.43,19.43,0,0,1,18.73-5l7,1.88a4.55,4.55,0,1,1-2.35,8.79l-7-1.88a10.36,10.36,0,0,0-9.94,2.67l-65.27,65.27a10.31,10.31,0,0,0-2.67,9.93l23.89,89.16a10.3,10.3,0,0,0,7.27,7.28L288,392.72a10.27,10.27,0,0,0,9.95-2.66l71.32-71.33a4.55,4.55,0,0,1,6.43,6.43L304.34,396.5A19.51,19.51,0,0,1,290.59,402.16Z"/><path class="cls-1" d="M295.1,195.38A4.47,4.47,0,0,1,295,189h0a4.58,4.58,0,0,1,6.46-.09h0a4.59,4.59,0,0,1,0,6.46h0a4.28,4.28,0,0,1-3.19,1.37h0A4.27,4.27,0,0,1,295.1,195.38Zm25.39-25.93a4.67,4.67,0,0,1,0-6.46h0a4.58,4.58,0,0,1,6.46-.09h0a4.58,4.58,0,0,1,0,6.46h0a4.61,4.61,0,0,1-3.27,1.36h0A4.89,4.89,0,0,1,320.49,169.45Z"/><path class="cls-1" d="M208.94,287.85a4.55,4.55,0,0,1-3.25-7.73l31.85-32.5A4.55,4.55,0,0,1,244,254l-31.85,32.49A4.51,4.51,0,0,1,208.94,287.85Zm51-52a4.55,4.55,0,0,1-3.25-7.74L275.35,209a4.55,4.55,0,0,1,6.5,6.37l-18.7,19.08A4.54,4.54,0,0,1,259.89,235.86Z"/><path class="cls-1" d="M365.62,199a4.56,4.56,0,0,1-3.19-1.28,4.51,4.51,0,0,1,0-6.46l32.12-32.21a4.67,4.67,0,0,1,6.46,0,4.86,4.86,0,0,1,1.36,3.27,4.64,4.64,0,0,1-1.36,3.19l-32.21,32.21A4.56,4.56,0,0,1,365.62,199Z"/><path class="cls-1" d="M414.76,145.69a4.4,4.4,0,0,1,0-6.37h0a4.4,4.4,0,0,1,6.37,0h0a4.4,4.4,0,0,1,0,6.37h0a4.28,4.28,0,0,1-3.19,1.37h0A4.28,4.28,0,0,1,414.76,145.69Zm19.29-19.29a4.51,4.51,0,0,1,0-6.46h0a4.67,4.67,0,0,1,6.46,0h0a4.68,4.68,0,0,1,0,6.46h0a4.63,4.63,0,0,1-3.27,1.36h0A4.28,4.28,0,0,1,434.05,126.41Z"/><path class="cls-1" d="M223.26,341.4a4.55,4.55,0,0,1-3.22-7.77l12.87-12.87a4.55,4.55,0,1,1,6.43,6.43l-12.87,12.87A4.54,4.54,0,0,1,223.26,341.4Zm32.17-32.17a4.55,4.55,0,0,1-3.22-7.77l32.17-32.18a4.55,4.55,0,0,1,6.43,6.43L258.65,307.9A4.54,4.54,0,0,1,255.43,309.23Zm57.91-57.91a4.55,4.55,0,0,1-3.22-7.77l32.17-32.17a4.55,4.55,0,0,1,6.43,6.43L316.56,250A4.54,4.54,0,0,1,313.34,251.32Z"/><path class="cls-1" d="M355.43,273.36a4.67,4.67,0,0,1,0-6.46h0a4.68,4.68,0,0,1,6.46,0h0a4.67,4.67,0,0,1,0,6.46h0a4.54,4.54,0,0,1-3.18,1.37h0A4.6,4.6,0,0,1,355.43,273.36Z"/><path class="cls-1" d="M276.92,356.45a4.55,4.55,0,0,1-3.22-7.77l12.87-12.87a4.55,4.55,0,0,1,6.43,6.43l-12.87,12.87A4.54,4.54,0,0,1,276.92,356.45Zm32.17-32.17a4.55,4.55,0,0,1-3.22-7.77L338,284.34a4.55,4.55,0,0,1,6.43,6.43L312.31,323A4.54,4.54,0,0,1,309.09,324.29Z"/></svg>